<?xml version="1.0" encoding="UTF-8"?>
<svg id="_图层_1" xmlns="http://www.w3.org/2000/svg" version="1.1" viewBox="0 0 1200 680">
  <!-- Generator: Adobe Illustrator 30.8.1, SVG Export Plug-In . SVG Version: 2.1.4 Build 1)  -->
  <defs>
    <style>
      .st0 {
        fill: #080808;
      }

      .st1 {
        fill: #df999b;
      }

      .st2 {
        fill: #f8d3d4;
      }

      .st3 {
        fill: #f9d0cc;
      }
    </style>
  </defs>
  <g id="couple-linework">
    <path id="couple-linework-1" class="st0" d="M838,12c1.5,0,3.17.33,5,1,3.79,4.1,6.17,8.06,6.06,13.69-.01.62-.02,1.24-.02,1.88-.02.47-.03.95-.04,1.43-1.25.15-2.58.15-4,0-.79-1.04-1.51-2.28-2.14-3.72-.11-.25-.47-1.03-1.06-2.32-.34-.81-.69-1.62-1.05-2.46-.36-.81-.73-1.62-1.1-2.46-.9-2.01-1.78-4.02-2.65-6.04,0,0,1-1,1-1Z"/>
    <path id="couple-linework-2" class="st0" d="M828.75,18.21c1.63,1.47,2.72,2.73,3.25,3.79-.31,1.05-.64,2.05-1,3-.17-.02-.68-.09-1.55-.2-14.96-1.85-31.33-2.75-45.45,3.2-.21.09-.87.37-1.98.82-33.23,13.89-67.75,40.34-82.02,74.18-1.33,3.6-2.26,7.24-3,11-.13.62-.25,1.24-.39,1.88-2.23,12.7-.09,26.54,6.89,37.47,3.64,4.9,7.76,8.9,12.39,12.83,2.17,1.87,4.18,3.71,6.11,5.82-.17,1.17-.5,2.17-1,3-6.39,1.01-11.02-2.38-16-6-9.39-7.18-15.6-19.57-18-31-.04-.2-.17-.8-.39-1.81-.3-1.74-.48-3.43-.61-5.19-.01-.23-.07-.94-.16-2.12-.81-21.51,9.86-43.29,24.16-58.88,8.64-9.3,17.83-17.43,28-25,1.22-.92,2.44-1.85,3.66-2.77,20.46-15.43,60.66-42.29,87.09-24.02h0Z"/>
    <path id="couple-linework-3" class="st0" d="M873.7,22.37c.43.21.86.42,1.3.63-1.45,4.49-3.85,7.51-7,11-.99-.33-1.98-.66-3-1,.15-3.14.25-5.1,2.3-7.55,2.72-2.39,4.85-3.42,6.4-3.08Z"/>
    <path id="couple-linework-4" class="st0" d="M897.44,35.44c26.08,8.94,46.84,30.25,58.78,54.61,2.65,5.55,5.07,11.03,6.78,16.95.15.51.3,1.02.45,1.54,6.72,24.11,2.35,49.9-7.45,72.46-.26.61-.52,1.22-.79,1.84-8.98,20.38-24.35,36.95-45.21,45.16-.5.21-1,.41-1.52.63-2.07.52-4.03.47-6.16.43-.81,0-1.62,0-2.45-.02-.21,0-.83-.02-1.87-.04.37-2.44,1.21-4.15,2.5-5.13.21-.1.86-.4,1.93-.91.71-.35,1.42-.69,2.15-1.05.76-.36,1.52-.72,2.3-1.09,7.6-3.82,13.9-8.05,20.12-13.82.25-.21.98-.86,2.2-1.95,5.38-5.04,9.23-10.68,12.8-17.05.11-.19.45-.78,1-1.76,12.7-22.78,17.68-51.84,10.98-77.43-7.87-26.22-27.61-49.09-51.47-62.02-5.03-2.62-10.22-4.75-15.51-6.79-1.67-.66-3.33-1.33-5-2,.25-.96.59-1.96,1-3,4.72-2.36,9.62-1,14.44.44Z"/>
    <path id="couple-linework-5" class="st0" d="M407.81,89.56c.52,0,1.04,0,1.57-.02,16.27-.12,33.77,5.03,45.73,16.48,1.73,1.93,3.33,3.9,4.89,5.98.41.54.82,1.07,1.24,1.63,3.45,4.82,5.11,9.38,4.76,15.37l-4,1c-.16-.59-.32-1.17-.49-1.77-3.51-10.56-10.68-18.5-20.44-23.76-21.91-10.9-43.08-9.69-65.89-2.29-25.34,8.65-47.85,23.43-67.18,41.82-.47.44-.94.88-1.42,1.33-20.32,19.26-34.5,43.58-48.83,67.39-7.44,12.34-15.61,23.55-25.55,33.99-1.63,1.75-3.17,3.58-4.7,5.41-17.6,20.13-45.43,39.97-72.5,42.88-.69,2.47-1.35,4.95-2,7.44-.07.23-.26.92-.58,2.08-2.21,8.5-1.53,16.18.08,24.73.28,1.54.56,3.09.84,4.64.13.67.25,1.34.38,2.03.32,2.38.32,4.68.28,7.08,27.89-13.11,47.61-23.98,59.16-32.62,1.69-1.27,3.39-2.51,5.1-3.75,6.32-4.62,12.31-9.56,18.24-14.66,1.95-1.68,3.92-3.31,5.93-4.91,7.3-5.82,13.99-12.12,20.57-18.75.52-.53,1.05-1.05,1.59-1.6,7.76-7.8,15.13-15.63,21.41-24.71.32-.46.65-.91.99-1.38,6.5-9.11,10.55-19.41,14.65-29.76,11.06-27.82,27.07-53.73,51.36-71.86.49-.37.98-.75,1.49-1.13,18.75-14.05,41-23.66,64.51-24.87v2c-.43.09-.86.18-1.31.27-26.35,5.59-49.46,16.88-69.69,34.73-.14.12-.55.48-1.24,1.08-20.82,18.5-32.52,45.26-42.88,70.48-6.29,15.25-14.16,26.87-24.88,39.44-.41.47-.81.95-1.23,1.44-9.33,10.91-19.67,21.46-30.77,30.56-.55.45-1.11.91-1.68,1.38-4.09,3.37-8.21,6.71-12.35,10.03-1.22.99-2.45,1.97-3.66,2.96-24.15,19.55-52.99,35.38-82.18,45.84-4.85,1.77-9.01,3.67-13.13,6.79-.6.41-1.2.82-1.81,1.25-2.12,3.12-2.47,6.01-2.19,9.75,4.63,16.92,18.26,28.62,32.82,37.27,3.28,1.86,6.69,3.32,10.18,4.73l-1,2c-6.17-.35-10.85-1.94-16.25-4.88-.25-.13-.99-.54-2.24-1.21-12.85-7.23-24.09-18.25-28.58-32.6-1.34-6.06-1.57-11.99,1.63-17.5,6.01-7.71,14.53-10.74,23.44-13.81-.15-.44-.31-.88-.46-1.33-4.97-14.62-7.02-27.64-1.1-42.29.5-1.23.94-2.49,1.37-3.76,1.7-3.74,3.72-5.56,7.47-7.12,2.01-.76,4.04-1.46,6.08-2.15,19.26-6.52,35.08-18.74,50.14-32.04,1.29-1.13,2.59-2.25,3.91-3.35,4.68-3.96,8.61-8.31,12.59-12.96.17-.21.7-.82,1.58-1.85,8.6-10.21,15.55-21.03,22.3-32.52,5.68-9.66,11.57-19.13,17.81-28.45.37-.55.74-1.11,1.12-1.68,17.98-26.97,40.44-48.69,68.19-65.5.61-.38,1.23-.75,1.86-1.13,11.05-6.57,22.95-10.93,35.14-14.87.74-.25,1.48-.49,2.24-.74,9.12-2.88,18.06-3.63,27.57-3.7Z"/>
    <path id="couple-linework-6" class="st0" d="M461.75,98.56c3.53.1,5.47,1.8,8.05,4.05,1.25,1.45,1.74,2.55,2.2,4.39.79-.16,1.58-.32,2.4-.49,18.12-2.99,35.43.12,50.6,10.49,5.17,4.11,10.12,8.99,13,15-.21,1.54-.54,2.87-1,4-.37-.33-.73-.66-1.11-1-1.94-1.7-3.91-3.36-5.89-5-.42-.36-.85-.71-1.28-1.07-16.91-13.93-35.29-17.11-56.72-17.93.21.44.41.88.63,1.33,1.71,3.79,2.83,7.1,3.18,11.29.09.9.18,1.8.27,2.73-.12,4.08-1.2,6.76-4.08,9.65-.03,1.01.01,2.09.13,3.25.1,3.61-.88,5.63-2.86,8.58-.85.78-1.95,1.25-3.3,1.42-.65.25-1.3.49-1.97.75-.78,2.24-1.3,4.25-1.75,6.56-5.3,22.8-20.82,39.19-36.97,55.15-.68.67-1.36,1.34-2.05,2.03-2.8,2.76-5.6,5.52-8.41,8.26-10.99,10.77-21.14,21.63-28.82,35.06-.37.62-.73,1.25-1.11,1.89-3.59,6.13-5.12,10.56-4.59,13.27,1.27,3.25,3.44,5.95,5.52,8.73.79,1.37,1.07,2.64.86,3.82-.07.13-.3.54-.68,1.23-.29-.31-.58-.61-.88-.92-3.2-3.26-6.57-6.21-10.12-9.08-.03.22-.13.9-.29,2.04-.75,3.69-2.4,6.92-4.08,10.27-.36.7-.71,1.4-1.07,2.11-4.14,8.02-9.29,15.27-14.56,22.58-.86,1.21-1.72,2.41-2.57,3.62-1.65,2.32-3.31,4.64-4.97,6.95-1.65,2.3-3.29,4.6-4.92,6.92-9.32,13.23-19.37,25.7-30.07,37.83-1.35,1.54-2.68,3.08-4,4.62-.72.83-1.44,1.66-2.16,2.5-.6.69-1.2,1.39-1.82,2.12-.99.96-2.16,1.44-3.49,1.44v2c-.93.94-2.06,1.96-3.37,3.06-2.34,1.97-4.65,3.93-6.86,6.05-14.31,13.61-35.13,27.52-55.57,27.24-4.81-.22-8.04-1.2-11.44-4.59-1.84-2.15-2.76-4.07-2.76-5.76,2.22.49,4.16,1.07,6.24,2.01,8.72,3.12,18.26,1.29,26.49-2.42,1.09-.52,2.18-1.06,3.27-1.59.19-.09.74-.37,1.67-.82,12.76-6.35,23.84-15.5,33.79-25.64,1.76-1.77,3.62-3.38,5.54-4.98,3.67-3.18,6.82-6.59,9.93-10.3,1.22-1.44,2.47-2.87,3.72-4.29,11.66-13.33,22.34-27.39,32.12-42.15,1.14-1.69,2.32-3.33,3.52-4.97,6.07-8.64,7.94-17.73,10.06-27.95.68-3.05,1.48-6.05,2.32-9.05.14-.51.29-1.02.43-1.55.69-2.47,1.39-4.94,2.11-7.4,1.66-6.04,1.95-10.76.79-16.9-.12-.74-.25-1.48-.37-2.24-.26-1.52-.52-3.03-.79-4.55-3.18-18.32-3.73-39.27,6.68-55.6,1.42-1.98,2.78-3.87,4.48-5.61h2c-1.05,2.1-2.11,4.21-3.18,6.3-9.52,19.51-7.25,38.86-3.82,59.7,2.6-7.17,4.42-14.46,6.24-21.84,6.72-26.97,15.3-55.12,37.76-73.16,0,3.78-.83,4.13-3.44,6.75-17.52,18.82-23.15,44.88-29.04,69.08-1.02,4.19-2.1,8.36-3.27,12.52-.25.9-.5,1.8-.75,2.73-.44,1.57-.89,3.14-1.36,4.71-1.55,5.77-.66,10.48.86,16.21.28-.51.56-1.02.85-1.54,1.33-2.39,2.68-4.77,4.02-7.15.45-.8.89-1.59,1.34-2.42,9.23-16.22,22.27-28.65,35.54-41.54,17.88-17.38,35.02-35.5,41.25-60.35.22-.86.45-1.71.68-2.59.46-1.8.9-3.6,1.32-5.41h6c-.05-.52-.09-1.04-.14-1.58-.2-3.85.14-6.43,1.03-7.75.37-.37.73-.73,1.11-1.11,2.69-2.81,2.4-5.65,2.34-9.38-.38-2.43-1.03-4.1-2.34-6.18-1.42-.5-2.75-.83-4-1,.58-2.59,1.25-4.25,2-5,.07-.94.09-1.96.06-3.06,0-.33-.02-1.31-.06-2.94-2.81-.89-4.96-1.02-6.45-.4-1.21.74-2.39,1.57-3.55,2.4.67-5.12,2.58-7.93,5.75-8.44h0ZM368,264c-.19.64-.38,1.29-.58,1.95-.73,2.44-1.46,4.88-2.19,7.32-.31,1.05-.63,2.1-.94,3.15-1.89,6.38-3.97,12.51-6.64,18.62-.43,1.31-.32,2.63.35,3.96,3.99-5.44,7.31-11.16,10.44-17.13.12-.22.49-.89,1.11-2.02,2.04-4,2.83-6.85,2.09-11.31-.82-1.99-2.05-3.11-3.64-4.54h0Z"/>
    <path id="couple-linework-7" class="st0" d="M757,108h2c.28.75.56,1.5.85,2.27,6.44,16.7,16.38,26.46,32.72,33.74,5.4,2.2,11.01,3.92,16.6,5.56.29.09,1.15.35,2.6.79.26.07,1.04.3,2.33.67,2.41,1.23,2.94,2.49,3.9,4.97-2.33,2.33-2.82,2.34-6,2.44-17.89-.39-34.18-9.01-46.82-21.19-5.58-6.04-9.34-14-9.3-22.31v-2.04c.12-1.81.47-3.21,1.13-4.9h0Z"/>
    <path id="couple-linework-8" class="st0" d="M727,115c1.57,2.95,2.65,5.89,3.69,9.06,3.25,9.19,7.47,16.94,16.33,21.66,5.79,2.62,11.91,4.47,17.98,6.28-.42,2.43-1.16,4.15-2.21,5.15-5.04,2.47-9.49,1.77-14.66.12-9.02-3.37-15.71-9.78-20.13-18.27-.34-.64-.68-1.27-1.02-1.93-1.84-4.07-2.25-7.9-2.29-12.32,0-.51,0-1.02-.02-1.54.06-3.22.68-5.45,2.33-8.21Z"/>
    <path id="couple-linework-9" class="st0" d="M546.63,136.81c6.31.61,10.4,3.41,15.37,7.19.52.36,1.05.71,1.59,1.08,11.2,8.23,19.01,23.46,21.41,36.92,1.58,16-.93,28.96-10.88,41.69-3.56,4.16-8.06,8.13-13.49,9.43-1.75-.08-3.28-.52-4.57-1.31-.71-1.21-.99-2.47-.86-3.79,1.03-2.6,2.03-3.02,4.49-4.27,8.23-4.83,12.25-13.2,15.03-22.05,3.23-13.05.34-25.77-6.17-37.27-1.43-2.22-2.94-4.33-4.55-6.43-.44-.6-.88-1.21-1.33-1.83-3.34-4.27-7.28-7.29-11.71-10.33-2.98-2.05-5.47-4.21-7.96-6.84,1.33-1.33,2.54-2.06,3.63-2.19Z"/>
    <path id="couple-linework-10" class="st0" d="M818,139c4.21,1.73,7.35,4.68,10.75,7.62.6.52,1.2,1.04,1.82,1.57,1.48,1.26,2.96,2.54,4.43,3.81l-1,3c-3.85.35-6.69-.21-8.52-1.68-.78-.72-1.54-1.45-2.29-2.2-.4-.36-.79-.72-1.2-1.1-2.6-2.46-3.96-4.64-4.09-6.53.03-1.5.07-2.99.1-4.49h0Z"/>
    <path id="couple-linework-11" class="st0" d="M865.31,151.94c7.41,4.28,13.04,10.49,15.29,18.88,1.81,10-1.02,19.77-6.6,28.18-5.23,5.24-10.72,8.01-18.07,8.25-3.44-.1-5.93-.52-8.93-2.25-.59-1.04-.92-2.04-1-3,1.66-1.66,3.9-1.48,6.19-1.81,6.48-1.07,11.07-3.42,15-8.78,3.31-5.74,3.61-12.36,2.34-18.74-1.53-5.49-3.69-8.65-8.53-11.67-4.53-2.26-11.65-1.64-16.47-.33-1.32.53-2.62,1.08-3.91,1.68-1.08.43-2.62.65-4.62.65-.32-2.31-.51-3.77,0-6,6.91-8.59,19.8-9.33,29.31-5.06h0Z"/>
    <path id="couple-linework-12" class="st0" d="M856,170c-.25,1.29-.59,2.63-1,4-2.17,1.08-3.24,1.11-5.62,1.06-.64,0-1.27-.02-1.92-.02-.48-.02-.96-.03-1.46-.04-.17-1.25-.17-2.59,0-4,3.34-2.7,6.1-1.89,10-1Z"/>
    <path id="couple-linework-13" class="st0" d="M539,174c2.39.36,3.66.6,5.27,2.47,2.62,5.41,3.12,10.19,3.17,16.15.01.72.02,1.44.03,2.17-.14,8.35-3.68,15.25-9.47,21.21-5.85,4.31-12.38,8.63-19.88,7.62-1.04-.19-2.08-.39-3.12-.62v-2c.78-.68,1.72-1.38,2.82-2.1.59-.41,1.19-.81,1.8-1.22.64-.43,1.28-.86,1.94-1.3,7.54-5.23,15.17-10.99,17.44-20.38,1.17-7.47,1.08-14.51,0-22h0Z"/>
    <path id="couple-linework-14" class="st0" d="M850.51,179.8c1.5.07,2.99.13,4.49.2.42,1.25.75,2.58,1,4-1.33,1.33-2.5,2.06-3.51,2.19-1.49-.06-2.99-.13-4.49-.19-.41-1.25-.75-2.59-1-4,1.33-1.33,2.5-2.07,3.51-2.2Z"/>
    <path id="couple-linework-15" class="st0" d="M506,181c2.89.9,4.37,2.12,5.75,4.75,3.19,8.47,1.99,18.55-1.43,26.73-2.26,4.31-5.08,7.9-8.32,11.52-.6.69-1.19,1.38-1.81,2.09-6.87,7.45-16.73,14.29-27.1,15.05-3.05.07-5.42-.31-7.09-1.14,1.25-4.1,3.85-5.3,7.41-7.2.71-.36,1.42-.73,2.15-1.11,12.62-6.83,23.32-14.61,28.13-28.71,1.45-5.45,1.47-10.77,1.32-16.37-.03-1.54-.02-3.07,0-4.61l1-1h-.01Z"/>
    <path id="couple-linework-16" class="st0" d="M755,183c2.42.13,4.3.26,6.04,2.09,2.31,3.89,2.26,7.58,1.62,11.98-.44,1.29-1.06,2.27-1.85,2.95-.91.36-2.18.69-3.81.98-2.59-2.48-3.98-4.82-4.17-7.02,0-.78,0-1.56-.02-2.36,0-.77-.03-1.54-.04-2.33.25-2.51.98-4.12,2.23-6.29h0Z"/>
    <path id="couple-linework-17" class="st0" d="M720,186c1.29.37,2.63,1.04,4,2,.87,2.34,1.17,4.51,1,7-.96,1.29-1.96,2.29-3,3-1.29-.41-2.63-1.08-4-2-.9-2-1.17-3.81-1-6,.96-1.59,1.96-2.92,3-4Z"/>
    <path id="couple-linework-18" class="st0" d="M886,201c-1.3,3.89-2.62,6.46-6,9-2.12.33-3.84.2-6,0,1.4-3.41,2.85-4.87,6-6.75.7-.43,1.4-.86,2.12-1.3,1.25-.63,2.55-.95,3.88-.95Z"/>
    <path id="couple-linework-19" class="st0" d="M723,205h3c.06.27.23,1.09.52,2.46,3.26,15.11,7.95,28.56,21.48,37.54,4.47,2.5,9.19,4.29,14,6,.9.34,1.8.68,2.72,1.04,14.83,4.69,33.51,2.94,48.28-1.04.79,3.04.92,5.21.4,6.51-.34.39-.68.78-1.02,1.18-.33.39-.65.79-.98,1.2-3.72,2.96-8.33,3.61-12.9,4.23-.61.09-1.22.17-1.85.26-10.25,1.31-20.4.65-30.65-.38.57,5.83,2.23,10.72,4.44,16.12.31.79.62,1.58.94,2.38.87,2.17,1.74,4.34,2.62,6.5.41,1.02.82,2.04,1.22,3.05.26.65.52,1.29.78,1.95.57-.04,1.14-.07,1.73-.11,2.57-.15,5.14-.3,7.71-.45.3-.02,1.21-.08,2.72-.17.85-.05,1.71-.1,2.59-.15.79-.05,1.58-.09,2.39-.14,1.24.01,2.19.35,2.86,1.02.03.95.02,2.03-.04,3.24,0,.22-.03.88-.07,1.98-.05,1.39-.12,2.77-.19,4.15-.02.65-.04,1.31-.06,1.99,0,.2-.03.81-.08,1.82.88,3.65,3.87,5.47,6.89,7.34.91.49,1.82.96,2.73,1.43.5.26.99.53,1.5.8,1.04.55,2.09,1.1,3.14,1.65,2.72,1.43,5.42,2.87,8.13,4.32.53.29,1.06.57,1.6.86,5.15,2.77,10.13,5.78,15.06,8.93,2.09,1.3,4.17,2.44,6.39,3.49-7.37-13.71-16.84-25.87-27.17-37.48-2.43-2.76-4.07-5.02-4.92-6.79-1.21-2.3-2.58-2.65-4.91-3.73-1.29-1.18-2.54-2.42-3.75-3.69-2.72-2.82-5.51-5.45-8.5-8-2.99-2.58-5.52-5.05-7.75-8.31v-2c3.89.54,6.14,1.53,9.19,4,.38.31.76.61,1.15.93,3.88,3.16,7.59,6.54,11.28,9.92,2.65,2.42,5.41,4.7,8.2,6.96.79.79,1.18,1.86,1.18,3.19h2c2.58,2.42,4.75,5.26,7,8,.41.49.82.99,1.24,1.5,21.21,25.69,28.99,49.46,28.88,82.5v2.6c-.02,6.47-.06,12.93-.12,19.4,0,.32-.01,1.29-.03,2.91-.05,5.75-.13,11.51-.23,17.27-.04,1.82-.06,3.65-.09,5.47-.03,2.57-.08,5.13-.14,7.69,0,.25,0,1-.02,2.26-.18,6.52-1.34,13.42-5.93,18.34-3.7,3.4-7.36,4.41-12.32,4.35-.19,0-.76-.01-1.71-.02-7.24-.17-14.3-1.5-21.41-2.83-1.49-.27-2.98-.55-4.47-.82-23.23-4.28-46.09-9.61-68.65-16.62,1.18,5.57,2.9,10.44,5.5,15.5.35.68.69,1.37,1.05,2.07,4.02,7.77,8.72,15.08,13.45,22.43,18.36,28.7,32.87,56.76,37,91,.07.56.14,1.13.22,1.71,1.28,10.36.88,20.88.78,31.29.78.03,1.56.05,2.37.08,6.2.28,12.28.8,18.4,1.88,12.07,2.11,23.7,3.42,35.98,3.35.21,0,.84,0,1.89-.01,1.78,0,3.56-.03,5.34-.06.53,0,1.05-.02,1.58-.02,3.57-.1,6.94-.57,10.44-1.22,4.67-47.42,4.2-94.17-14.17-138.94-1.41-3.51-2.14-6.21-1.83-10.06,1.32-.33,2.64-.66,4-1,4.38,7.16,8.11,14.1,11,22,1.29-2.73,2.58-5.46,3.88-8.19.36-.77.72-1.54,1.1-2.33,1.79-3.79,3.53-7.56,5.02-11.48-.91-.39-1.82-.78-2.75-1.19-3.34-1.44-5.39-3.75-7.25-6.81-.82-2.13-1.28-4.26-1.69-6.5-.04-.2-.16-.81-.36-1.82-1.17-6.19-1.65-12.4-1.95-18.68-.41.16-.82.32-1.24.49-2.03.59-3.77.64-5.88.63-.71.01-1.41.01-2.14.01-1.16-.09-2.07-.46-2.74-1.13-.08-2.35-.09-4.67-.07-7.02.01-.73.01-1.47.02-2.22.01-1.61.02-3.22.04-4.82.02-2.57.03-5.13.04-7.7.04-7.29.08-14.59.14-21.88.21-24.99-.75-43.45-2.89-55.38-.43-3.02-.38-5.94-.28-8.98,1.25.08,2.58.41,4,1,.97,2.08,1.57,3.8,2.12,6,.17.62.34,1.25.51,1.89,6.98,27.9,7.75,64.83,2.37,93.11h6c0-.19-.03-.75-.08-1.68-.24-5.34-.47-10.67-.7-16.01-.12-2.74-.24-5.48-.37-8.22-.5-11.22-.94-22.44-.97-33.68,0-.83,0-1.67-.01-2.53.07-22.89,9.64-44.9,17.71-65.99,3.61-9.71,5.98-19.83,8.42-29.89l4,2c-.43,8.5-.99,16.7-3,25,1.32-.25,2.63-.53,3.94-.81.73-.15,1.46-.3,2.21-.46,1.23-.49,2.1-1.17,2.6-2.05,1.03-6.82.05-13.88-.75-20.68,3.23,1.47,5.94,3.34,8.69,5.56.14.12.58.48,1.32,1.07,7.91,6.51,14.46,13.96,20.84,21.94,1.53,1.9,3.1,3.75,4.68,5.61,5.06,5.99,9.85,12.16,14.58,18.4,3.4,4.48,6.84,8.9,10.33,13.3,6.21,7.84,12.13,15.9,18.01,24,1.02,1.39,2.04,2.77,3.08,4.15.46.61.92,1.23,1.39,1.87.13.18.54.72,1.23,1.62.57.99.81,2.38.73,4.17-.29.76-.58,1.52-.88,2.31-.16.66-.33,1.32-.5,2-.16.66-.33,1.32-.5,2-.16.87-.33,1.73-.5,2.62-.33,1.59-.83,3.05-1.5,4.38.87,1.99,1.78,3.85,2.81,5.75,5.4,10.1,7.49,18.99,4.19,30.25-.83,2.07-1.55,3.26-3,5h-3c0-.17.02-.7.05-1.59.3-11.55.33-20.96-5.05-31.41-3.18,1.3-5.18,2.99-7.49,5.44-1.18,1.22-2.4,2.38-3.64,3.52-.13.12-.5.47-1.12,1.05-1.09,1.02-2.18,2.02-3.27,3.03-.99,1.31-1.41,2.68-1.27,4.12.53,1.23,1.14,2.3,1.85,3.22,1.5,2.59,1.19,4.65.94,7.62l-2,2h-3c-.21-.7-.42-1.4-.63-2.12-1.66-4.89-3.39-7.89-5.19-8.99-1.75-.47-3.38-.78-5.18-.89v-2c-1.65.66-3.3,1.32-5,2-7.91-8.3-15.73-16.58-22.85-25.58-1.39-1.72-2.83-3.4-4.28-5.08-.18-.21-.72-.84-1.63-1.9-.41-.47-.82-.95-1.24-1.44,0,.16.03.65.08,1.48,1.41,27.69,2.15,46.75,2.22,57.2,0,1.16.02,2.32.04,3.49.1,6.74,0,11.1-4.63,16.27-5.52,4.64-11.4,7.37-18.59,8.06-1.51.31-2.88.81-4.12,1.5-.98,2.22-1.48,4.31-1.9,6.69-.87,4.95-2.59,9.24-4.66,13.81-.11.23-.42.92-.93,2.07-1.54,3.39-2.76,5.84-3.65,7.34-1.11,2.69-.78,4.13-.18,6.96.1.47.2.94.3,1.43.33,1.57.67,3.13,1.02,4.7.24,1.12.48,2.25.72,3.37.9,4.2,1.82,8.4,2.75,12.59.4,1.81.8,3.62,1.19,5.42.12.53.24,1.07.36,1.61,1.63,7.52,2.14,15.06,2.18,22.73.01.81.02,1.63.02,2.46.02,2.63.03,5.26.03,7.88v2.72c0,12.57-.43,25.02-1.64,37.53-.06.68-.12,1.36-.19,2.05-.18,1.9-.37,3.8-.58,5.69-.05.55-.11,1.1-.17,1.66-.36,3.14-.99,5.61-2.68,8.29-4.31,2.48-9.12,2.6-14,3v2c.63.15,1.26.29,1.91.45,8.85,2.32,16.01,6.76,21.09,14.55.67,2,1,5.33,1,10h60v8c-.27,0-1.08,0-2.44.02-7.62.06-15.24.13-22.86.22-3.91.04-7.83.08-11.75.11-3.78.02-7.57.06-11.36.11-1.43.02-2.87.03-4.31.04-7.49.03-14.14.25-21.25,2.81-3.21,1.09-6.36,1.26-9.72,1.38-.71.03-1.42.06-2.15.09-2.38.1-4.77.16-7.16.22-.29,0-1.19.03-2.68.07-10.72.22-21.33.03-32.01-.95-.88-.07-1.76-.15-2.66-.23-.82-.09-1.63-.17-2.47-.26-.24-.02-.96-.09-2.16-.22-1.35-.27-2.55-.75-3.6-1.42-3.69-1.51-7.24-1.25-11.19-1.22h-2.71c-2.5,0-4.99,0-7.48.02-2.7.01-5.39.01-8.09.01-4.71,0-9.41,0-14.11.03-6.9.02-13.8.03-20.7.03-11.4.02-22.81.03-34.22.06-25.82.05-51.64.07-77.46.08-4.16,0-8.31.01-12.46.01-43.24.03-86.49-.07-129.73-.48-2.62-.03-5.23-.05-7.85-.07-1.94-.02-3.89-.04-5.83-.06-5.63-.05-11.26-.1-16.89-.15-1.2-.02-2.4-.03-3.6-.04-18.17-.17-36.33-.24-54.49-.23h-1.74c-11.09.01-22.17.02-33.26.05-19.53.05-39.05.07-58.58-.39-2.56-.06-5.11-.11-7.67-.17-6.95-.15-13.91-.32-20.86-.56-17.26-.59-29.92,1.19-37.99,5.33-2.23,1.13-4.52,2.02-6.85,2.93-.76.32-1.53.63-2.31.96-33.51,13.85-73.18,18.85-107.7,4.93-11.56-5.13-17.99-9.36-19.28-12.67-.12-.46-.25-.91-.37-1.38,2.66,1.03,5.27,2.11,7.85,3.33,35.24,16.43,75.24,14.72,111.15,1.67,5.25-2,10.45-4.13,15.61-6.36,9.18-3.91,18.72-6.24,28.39-8.64,1.71-.43,3.41-.85,5.12-1.28,2.6-.65,5.21-1.3,7.82-1.95,45.73-11.4,89.12-26.72,128.39-53.36.45-.31.9-.62,1.37-.93.15-.11.61-.42,1.37-.94.92-.61,1.83-1.23,2.74-1.85.45-.3.89-.61,1.35-.92,13.25-8.95,23.17-13.15,29.74-12.59,7.65.49,12.74.02,15.27-1.39,1.32-1.7,2.29-3.35,3.16-5.31.79-1.73,1.69-3.38,2.61-5.05,7.47-13.85,11.67-27.92,14.06-43.43.13-.84.27-1.68.4-2.55,1.59-11.93.29-22.93-2.12-34.64-.3-1.96-.33-3.83-.28-5.81h2c9.76,13.07,8.32,34.08,6.57,49.44-2.57,17.58-9.78,36.01-22.19,48.94-1.36,1.6-1.8,2.65-2.38,4.62,26.9,1.42,50.69-7.14,74.57-18.82,2.29-1.11,4.58-2.19,6.89-3.26,2.1-.98,4.2-1.96,6.3-2.94,1.02-.48,2.05-.96,3.08-1.43,1.45-.67,2.89-1.35,4.34-2.03.27-.13,1.11-.53,2.52-1.18,2.67-1.56,4.29-3,6.3-5.34.45-2.29.62-3.97.56-6.25,0-.61-.02-1.22-.03-1.85-.67-14.95-8.11-32.43-16.78-44.52-.25-.45-.5-.91-.75-1.38l1-2c12.93,13.61,22.31,30.15,23.12,49.34-.12,2.65-.52,5.08-1.12,7.66,1.54-.46,3.08-.92,4.62-1.38.29-.08,1.16-.34,2.61-.77,2.94-.9,5.85-1.87,8.77-2.85,1.29-24.63-8.58-46.64-20-68-.31-.59-.63-1.19-.95-1.8-4.83-9.07-10.53-17.28-16.74-25.45-1.19-1.59-2.35-3.2-3.49-4.84-6.2-8.79-14.22-19.26-23.46-24.91-1.63-1.2-1.92-2.07-2.36-4-.55.09-1.1.17-1.66.26-18.1,2.81-35.21,5.34-53.34,1.74,1.39,2.79,3.16,2.89,6,4l2,2c-.25,1.42-.59,2.75-1,4-1.65-.66-3.3-1.32-5-2-.33,1.65-.66,3.3-1,5-2.25-.7-3.66-1.41-4.86-3.48-1.25-2.9-2.22-5.8-3.08-8.83-1.29-3.27-1.99-3.27-5.06-4.69-1.37-.94-2.72-1.9-4.06-2.88-5.05-3.6-10.26-6.93-15.5-10.24-.79-.51-1.58-1.01-2.4-1.53-4.68-2.95-9.41-5.7-14.31-8.27-1.15-.72-2.06-1.75-2.73-3.08l4-2c-2.97-1.16-5.95-2.3-8.94-3.44-.83-.32-1.66-.65-2.52-.98-5.52-2.09-10.64-3.24-16.54-3.58-2.71,5.79-3.71,11.35-2.06,17.62,2.94,7.54,9.71,10.45,16.68,13.63,5.49,2.4,11.09,4.35,16.77,6.21.66.21,1.32.43,2,.65,3.31,1.08,6.63,2.13,9.96,3.16,7.4,2.33,13.5,4.92,19.65,9.73.66-.99,1.32-1.98,2-3,1.29.13,2.63.46,4,1,.5,1.71.83,3.37,1,5-.62-.08-1.24-.16-1.88-.25-.7.08-1.4.16-2.12.25-.75,1.35-1.42,2.68-2,4-1.63-.64-3.25-1.29-4.88-1.94-.9-.36-1.8-.72-2.74-1.09-1.59-.65-3.05-1.3-4.38-1.97v2c-.73.54-1.46,1.08-2.21,1.64-3.54,2.69-5.35,6.27-7.48,10.11-.77,1.37-1.54,2.74-2.32,4.11-.34.6-.67,1.21-1.02,1.83-.32.43-.64.86-.97,1.31h-2c.32-7.41,3.68-12.76,8.95-17.91,1.65-1.42,3.31-2.78,5.05-4.09-6.65-1.6-12.25-.07-18.69,1.69-.57.15-1.14.3-1.73.46-39.5,10.58-75.69,24.78-107.58,50.85-.9.72-1.8,1.44-2.7,2.16-6.63,5.32-13.04,10.91-19.45,16.49-4.33,3.77-8.69,7.5-13.05,11.23-2.46,2.1-4.9,4.2-7.31,6.35-.7.63-1.4,1.25-2.11,1.89-.57.52-1.14,1.04-1.73,1.58-1.1.87-2.39,1.65-3.86,2.35-.59.32-1.18.63-1.79.95v2c-.97.95-2.12,1.98-3.47,3.09-4.59,3.91-8.81,8.11-13.03,12.41-4.75,4.84-9.56,9.52-14.7,13.94-1.53,1.33-3.01,2.68-4.46,4.08-15.34,14.74-33.62,23.21-53.4,30.36-.54.19-1.07.38-1.62.58-6.04,2.17-12.05,4.16-18.32,5.54v2c25.66,1.13,44.74-6.37,66-20,3.19-2.02,6.37-4.04,9.56-6.06.79-.5,1.58-1,2.4-1.52,12.32-7.78,24.78-15.08,37.92-21.4,2.26-1.09,4.5-2.19,6.75-3.31,14.19-6.94,28.63-11.98,43.75-16.46.49-.15.99-.3,1.51-.45,12.8-3.81,21.17-5.07,25.11-3.8-.41.13-.81.27-1.23.4-46.36,15.13-86.87,34.7-127.66,61.44-13.37,8.75-27.72,17.43-44.11,18.16-.29.02-1.15.07-2.6.16-7.26.28-14.23-.61-21.4-1.66-28.33-4.06-52.72,4.11-75.87,20.85-2.42,1.83-4.78,3.73-7.13,5.65-.51.41-1.03.83-1.56,1.25-13.78,11.13-26.74,23.59-36.78,38.25-.84,1.2-1.74,2.35-2.66,3.5h-2c.28-5.68,1.96-9.15,5.38-13.62.15-.21.6-.82,1.35-1.83,1.4-1.86,2.83-3.71,4.27-5.55.44-.57.87-1.13,1.32-1.71,6.97-8.94,14.86-16.22,23.68-23.29.66-.54,1.32-1.07,1.99-1.63,22.01-17.88,49.08-33.05,78.26-31.08,5.33.22,7.89-.77,12.19-3.79,3.43-2.01,6.98-3.25,10.72-4.55.76-.27,1.52-.53,2.3-.8,3.18-1.11,6.36-2.19,9.54-3.27,14.22-4.83,26.89-10.62,38.38-20.44.67-.57,1.35-1.13,2.04-1.71,1.87-1.57,3.73-3.15,5.58-4.73.8-.67,1.6-1.34,2.4-2,4.42-3.75,8.47-7.83,12.53-11.95,3.24-3.27,6.61-6.32,10.11-9.31,2.25-1.99,4.35-4.1,6.46-6.24,7.89-7.98,16.57-14.74,25.5-21.5-.19-.53-.38-1.05-.57-1.6-6.09-17.16-7.96-29.51-5.6-37.06,1.98-3.98,5.35-5.35,9.17-7.34.49-.26.98-.52,1.49-.79,10.67-5.57,21.91-9.79,33.13-14.09.76-.28,1.51-.57,2.29-.87l6.57-2.49c.21-.09.87-.34,1.98-.76,4.13-1.54,8.28-2.85,12.54-4-.1-.89-.21-1.77-.31-2.69,0-1.97.09-3,1.23-4.63,3.06-2.99,5.94-4.94,9.89-6.56.59-.24,1.17-.48,1.77-.73,13.7-5.46,28.71-9.98,43.42-11.39-.53-.47-1.06-.95-1.61-1.43-5.56-5.21-9.91-10.15-10.61-18.09.24-6.61,2.37-11.85,5.49-17.62.83-1.67,1.47-3.01,1.73-4.86-.78-1.6-1.66-2.62-2.93-3.85-2.89-3.12-2.4-7.67-2.34-11.66.41-3.79,1.67-5.78,4.27-8.49.51-.56,1.03-1.13,1.55-1.71,10.09-9.93,28.9-16.21,42.83-16.85,3.71.17,6.74,1.32,10.12,2.75,5.08,2.02,8.13,1.88,13.2-.07,5.45-2.65,8.83-5.22,10.14-7.71.36-1.07.75-2.54,1.16-4.41.33-.66.66-1.32,1-2,.99.33,1.98.66,3,1-1.88,7.02-3.73,11.39-10,15.22-3.59,1.95-6.17,2.74-7.74,2.38-.42-.2-.83-.4-1.26-.6v2c.62.28,1.24.56,1.88.84,2.74,1.5,2.91,2.81,4.06,5.66,1.82,2.91,2.8,4.17,6.15,5.05,4.47.63,8.97.83,13.48,1.07,8.83.49,18.73,2.27,25.94,7.74,2.39,1.03,4.05.37,6.49-.36,3.4-1.78,5.85-3.8,8-7,.95-4.28.47-8.68,0-13-.82-.03-1.64-.05-2.48-.08-1.09-.05-2.18-.11-3.27-.17-.54-.01-1.08-.03-1.63-.04-2.94-.18-4.85-.56-7.07-2.57-1.03-1.43-1.5-2.67-1.4-3.73.57-.94,1.43-1.59,2.58-1.95.74-.07,1.48-.15,2.25-.23.83-.1,1.66-.2,2.51-.31.89-.09,1.78-.19,2.7-.3,12.78-1.67,23.48-4.73,33.81-12.62.15-.1.62-.41,1.41-.92,7.82-5.35,12.98-15.93,15.23-24.88.88-5.35.57-10.87.26-16.27-.01-.29-.05-1.16-.11-2.63-.02-.26-.07-1.05-.16-2.37.12-.64.24-1.27.37-1.93,1.34-.85,2.67-1.51,4-2,3.06,2.66,3.81,4.69,4.14,8.71.51,10.09-.15,18.96-4.14,28.29-.2.48-.41.96-.62,1.46-6.36,14.42-19,23.57-33.11,29.72-3.05,1.1-6.15,1.97-9.27,2.82.98.04,1.96.07,2.96.11,12.46.58,20.79,2.76,24.98,6.53,3.57,4.57,5.33,9.6,5.06,15.36,19.95,3.44,39.51,1.85,59.44-1.38.68-.1,1.36-.2,2.06-.3,4.06-.72,6.88-1.92,10.17-4.43,1.98-1.33,4-1.62,6.33-1.89.07-.77.15-1.55.23-2.35.51-1.77,1.42-3.11,2.73-4.02,1.6-.71,3.21-1.42,4.81-2.13,2.29-1.54,2.54-1.87,3.52-4.25,2.01-4.52,5.9-6.98,9.77-9.87.81-.62,1.61-1.23,2.42-1.84,8.24-6.24,16.82-11.96,25.52-17.54.69-.45,1.39-.9,2.1-1.36,20.16-13,41.66-24.14,64.82-30.7,2.52-.73,4.78-1.66,7.08-2.94-.74-.28-1.48-.56-2.24-.85-14.49-5.65-26.48-13.24-33.2-27.77-3.59-8.3-5.6-16.27-4.56-25.38l2-2h0ZM753.71,270.47c-.85.32-1.7.64-2.57.97-.31.11-1.23.47-2.76,1.06-.47.18-.94.36-1.43.55-34.22,13.21-64.35,33.59-93.95,54.95,2.32,6.42,5.17,12.27,8.44,18.25,4.01,7.37,7.02,14.76,9.56,22.75.33,1,.66,2,1,3,7.99-1.3,15.3-3.67,22.88-6.44,1.22-.44,2.45-.89,3.68-1.33,9.72-3.53,19.35-7.29,28.96-11.1,7.84-3.11,15.71-6.15,23.63-9.09l3.54-1.32c1.63-.61,3.26-1.22,4.9-1.82.93-.35,1.85-.69,2.81-1.04,2.52-.83,4.99-1.4,7.6-1.86-.36,2.44-1.21,4.16-2.54,5.15-.66.31-1.33.61-2.01.93-.75.35-1.5.7-2.27,1.06-.82.37-1.65.73-2.49,1.11-.87.39-1.73.79-2.62,1.2-8.64,3.89-17.38,7.46-26.22,10.84-2.14.82-4.27,1.64-6.4,2.46-4.36,1.67-8.72,3.33-13.08,4.98-1.77.67-3.53,1.34-5.29,2.01-8.42,3.22-16.82,6.37-25.53,8.73-.6.17-1.2.33-1.82.5-3.88,1-7.09,1.2-11.04.31-1.97-.33-3.32,0-5.25.47-2.36.45-3.15.42-5.26-.83-1.19-.93-2.37-1.88-3.55-2.83-1.09-.73-2.53-1.09-4.32-1.09-1.54.67-3,1.52-4.37,2.56-2.22,1.65-3.25,1.73-5.94,1.44.04-1.17.37-2.5,1-4,3.38-2.55,6.87-4.1,11-5-.97-8.93-5.62-19.62-12-26-4,.11-6.68,1.7-9.58,4.3-5.08,6.09-6.09,14.03-6.42,21.7l2-1v-2c1.25-.71,2.59-1.37,4-2l2-1c-2.83,6.51-5.83,10.51-9,12-1.65.31-3.28.45-4.95.61-2.56.49-4.58,1.49-6.93,2.64-17.79,8.54-43.36,14.66-62.95,10.09-1.45-.23-2.69-.03-3.72.59-.44.45-.88.91-1.33,1.38-2.27,2.17-3.72,2.98-6.81,3.5-2.37.55-3.09.85-4.45,2.91-1.67,4.07-2.45,7.05-.86,11.28,2.14,2.45,4.55,4.55,7,6.69,1.38,1.25,2.77,2.51,4.14,3.77.67.61,1.34,1.22,2.03,1.84,12.99,12.05,23.3,27.27,31.83,42.7.47.86.95,1.71,1.44,2.59,7.04,12.76,13.06,25.51,17.56,39.41.22.64.43,1.29.66,1.95,3.59,10.75,6.36,22.27,2.42,33.28-1.69,2.78-3.52,4.37-6.73,5.19-1.93.32-3.84.56-5.79.77-.65.08-1.31.16-1.98.25-2.88.34-5.59.56-8.49.49-.69.02-1.38.04-2.09.07-1.43,2.86-.74,5.4-.33,8.46.03.22.11.89.25,2,.27,2.16.55,4.32.83,6.48.39,3.01.77,6.02,1.15,9.04.09.76.19,1.52.29,2.3.6,4.82,1.11,9.65,1.54,14.49.11,1.21.22,2.41.33,3.62.16,1.68.31,3.36.43,5.05.8,10.87,5.17,18.79,10.76,27.94,4.85,8.01,4.75,11.17,4.75,21.62h82c-.66-.88-2.66-3.55-6-8-12.51-18.47-12.46-38.44-8.69-59.75,1.77-9.15,4.72-17.57,12.36-23.37,2.72-1.79,4.46-2,7.68-1.98.85.01,1.7.01,2.58.01.89.01,1.78.02,2.69.03.9,0,1.8.01,2.72.01,2.22,0,4.44.03,6.66.05-.03-.93-.06-1.86-.09-2.82.02-5.07,2.51-7.58,5.98-11.1,5.84-5.55,12.29-10.29,18.71-15.13,6.05-4.59,11.69-9.48,17.15-14.75,1.15-1.1,2.31-2.19,3.48-3.27,5.37-5.12,9.57-10.86,13.77-16.93-.83-1.46-1.66-2.91-2.49-4.37-.72-1.27-1.45-2.54-2.17-3.81-1.71-3.01-3.44-6.01-5.25-8.96-5.09-8.32-9.76-16.99-10.63-26.84-.23-2.52-.58-4.64-1.46-7.02-3.13-2.23-6.31-3.05-10-4-2.51-1.07-4.26-2.43-5.25-4.06-5.94-18.74,10.7-50.66,18.94-67.33,1.67-3.09,3.17-4.19,6.31-5.61-2.5,7.61-5.04,15.19-7.75,22.72-.23.64-.46,1.28-.7,1.94-.94,2.6-1.88,5.19-2.82,7.79-6.76,18.55-9.96,30.19-9.59,34.92,3.19,6.05,13.66,7.97,19.63,9.88,4.39,1.33,8.81,2.55,13.23,3.75.86.24,1.72.47,2.61.72,13.88,3.78,27.92,6.7,42.01,9.53.29.06,1.15.23,2.6.52,21.69,4.36,34.95,6.1,39.78,5.23,3.16-2.47,3.28-5.29,3.78-9.03,1.75-15.52,1.41-31.31,1.41-46.9,0-3.3,0-6.6.03-9.91.01-2.6.01-5.19.01-7.79v-3.65c.11-17.43-2.03-28.4-6.41-32.93-1.41-1.15-2.85-2.13-4.39-3.1-.56-.37-1.12-.74-1.7-1.13-6.25-4.05-12.82-7.57-19.35-11.15-13.55-7.42-21.35-13.22-23.39-17.41-1.13-3.93-1.61-7.94-2-12-.98-.04-1.95-.07-2.96-.11-1.28-.07-2.57-.14-3.85-.2-.65-.03-1.29-.05-1.95-.07-3.13-.18-5.45-.76-6.97-1.73-1.88-2.81-3.31-5.76-4.71-8.83-.3-.66-.61-1.32-.92-2-2.67-5.88-4.79-11.88-6.64-18.06-2.98,0-4.55.44-7.29,1.47h.01ZM907,274c.01.32.05,1.28.11,2.89.02,1.26.05,2.53.08,3.8.02.62.05,1.25.07,1.89.07,4.42-.56,6.89-3.26,10.42-1.46.87-2.79,1.54-4,2,.2.37.4.73.61,1.11,1.77,4.14,1.37,6.92-.23,11.08-4.83,10.97-11.78,21.43-18.37,31.41-1.37,2.12-2.7,4.25-4.01,6.4-.46.75-.92,1.5-1.4,2.27-4.61,8.65-4,16.71-3.48,26.29.08,1.68.15,3.36.21,5.04.14,3.44.3,6.89.46,10.33.21,4.79.33,9.59.41,14.38.53,28.53,2.46,45.09,5.8,49.69,8.21,1.43,17.67-2.9,24.7-6.97,1.57-1.24,2.34-2.26,3.3-4.03.16-1.45.24-3.03.23-4.73v-4.39c-.02-1.45-.02-2.9-.02-4.36-.03-5.09-.21-10.15-.55-15.24-.64-9.68-.8-19.32-.81-29.02v-4.89c0-3.36-.01-6.73-.01-10.1,0-4.32,0-8.64-.03-12.96v-10.03c0-1.59,0-3.18-.01-4.78v-6.64c0-.65,0-1.31-.02-1.98.03-3.64.78-6.27,2.26-7.88,1.22,5.78,2.13,11.4,2.39,17.3.02.53.05,1.05.08,1.6.1,2.16.2,4.33.26,6.5.15,5.79.31,10.32,4.65,14.64,1.2,1,2.41,1.98,3.62,2.96,1.09,1.17,2.15,2.35,3.19,3.56.57.66,1.13,1.32,1.72,2,.32.37.64.75.97,1.13,1.35,1.58,2.7,3.15,4.05,4.72,2.07,2.41,4.14,4.81,6.2,7.22.48.56.96,1.12,1.46,1.69.95,1.13,1.88,2.28,2.79,3.44.44.55.87,1.1,1.32,1.67.37.49.75.98,1.14,1.49.77.72,2.08,1.1,3.91,1.14,1.5-.71,2.44-1.54,2.81-2.5.15-.51.29-1.03.44-1.56.18-.08.73-.32,1.64-.73,3.4-1.83,5.84-4.41,8.55-7.15l1.72-1.72c5.28-5.4,9.78-11.22,14.09-17.4-2.52-3.86-5.14-7.59-7.94-11.25-3.93-5.19-7.76-10.46-11.56-15.75-3.94-5.48-7.91-10.94-11.99-16.32-2.27-3-4.5-6.03-6.72-9.07-6.25-8.58-12.58-17.01-19.35-25.18-3.22-3.89-6.28-7.85-9.24-11.94-.4-.49-.79-.98-1.2-1.49h-1.04ZM890,294c-1.88,5.35-3.75,10.71-5.61,16.07-.63,1.82-1.27,3.65-1.91,5.47-.92,2.61-1.83,5.23-2.73,7.85-.29.82-.58,1.64-.88,2.48-.09.25-.35,1.02-.79,2.3-.23.67-.47,1.34-.71,2.03-.41,1.99-.2,2.96.63,4.8,1.79-3.09,3.56-6.18,5.33-9.28.61-1.05,1.21-2.09,1.81-3.14,6.83-11.79,10-19.54,9.51-23.25-.61-2.2-1.13-3.64-2.65-5.33h-2ZM409.38,332c-.76.33-1.52.66-2.3,1.01-7.06,3.22-11.42,6.55-13.08,9.99-.27,1.25-.44,2.54-.5,3.88-.05.65-.1,1.31-.16,1.99,1.09,3.52,3.6,5.23,6.66,7.13,2.73,1.18,5.52,2,8.38,2.81,6.31,1.95,12.19,4.22,18.06,7.25.22.11.88.46,1.99,1.03,1.86.96,3.72,1.94,5.57,2.91,7.81,4.08,13.31,5.71,16.5,4.9,4.44-2.67,6.28-7.83,7.62-12.59,1.08-4.58,1.14-9,1.07-13.69v-2.44c-.03-3.93-.43-6.66-1.19-8.18-4.72,1.48-6.24,5.31-8.5,9.38-2.47,4.4-4.7,8.25-8.5,11.62,3.16-8.9,6.93-17.54,15-23-1.29-2.88-2.45-5.09-5-7-3.09-1.03-5.55-1.18-7.37-.45-1.64,1.06-3.12,2.21-4.63,3.45-1.28,1.03-2.56,2.07-3.84,3.1-.89.71-1.77,1.44-2.65,2.17-2.08,1.71-3.84,3.15-6.51,3.73,1.66-4.73,4.15-7.26,8-10.31.15-.12.59-.47,1.33-1.06,2.13-1.63,4.03-3.03,6.67-3.63v-2c-11.23-1.29-22.57,3.58-32.62,8h0ZM528,330c.08.63.16,1.26.25,1.91.28,3.85.45,6.88-1.53,10.29-1.8,2.08-3.69,3.94-5.72,5.8-.69.68-1.39,1.35-2.11,2.05-3.47,3.26-6.07,4.97-7.8,5.13-2.27-.2-3.49-.7-5.45-1.82-.64-.35-1.27-.7-1.92-1.05-.67-.37-1.34-.74-2.03-1.12-10.38-5.44-22.83-8.99-34.69-7.19-1.2,2.39-.98,3.54-.81,6.19.09,8.68-2.25,19.2-6.98,26.58-2.28,2.32-5.14,3.32-8.21,4.23-.5,4.48-.23,7.6.8,9.36,1.33,1.33,2.73,2.47,4.2,3.64,1.14,1.01,2.29,2.03,3.42,3.05,1.16,1.04,2.33,2.06,3.49,3.08,1.39,1.25,2.55,2.41,3.46,3.48,2.08,1.78,3.03,1.71,5.73,1.56.82-.03,1.64-.07,2.49-.11.89-.06,1.77-.11,2.69-.17.92-.05,1.84-.09,2.79-.14,2.46-.13,4.91-.27,7.37-.41,2.45-.15,4.91-.27,7.37-.39,4.6-.24,9.2-.52,13.8-.81,2.12-.12,4.24-.23,6.36-.32,1.08-.05,2.17-.11,3.25-.17.89-.04,1.77-.08,2.69-.12,1.39-.35,2.59-1.1,3.59-2.23,1.24-2.38,1.84-4.7,2.5-7.3.36-1.11.73-2.23,1.11-3.34,3.63-11.32,4.13-22.98,1.89-34.66,4.21,3.37,5.2,6.74,6,12,.09,3.19-.12,6.32-.38,9.5-.01.27-.07,1.1-.17,2.49-.14,2.01-.29,4.01-.45,6.01,2.49-2.22,3.65-4.13,4.8-7.25.31-.83.63-1.66.95-2.52.33-.88.66-1.76,1-2.67,2.54-6.61,5.16-12.86,9.08-18.78,2.4-3.71,3.66-7.28,2.79-11.72-2.11-4.6-4.47-8.47-9.11-10.81-5.31-1.83-10.97-1.43-16.51-1.25h0ZM644.81,334.44c-.6.51-1.19,1.03-1.81,1.56,1.36,3.54,2.91,6.91,4.68,10.27.25.49.51.98.77,1.48.53,1.02,1.07,2.05,1.61,3.07.81,1.54,1.61,3.09,2.42,4.63,1.49,2.86,3,5.71,4.52,8.55.13.25.53,1,1.2,2.25.11.21.46.85,1.04,1.92.1.17.39.71.88,1.62.59.81,1.63,1.52,3.13,2.15.58.02,1.15.04,1.75.06-.52-6.35-2.68-11.52-5.25-17.31-.38-.89-.77-1.77-1.16-2.69-1.17-2.68-2.37-5.34-3.59-8-.07-.16-.29-.64-.65-1.43-.64-1.4-1.3-2.79-1.96-4.18-.39-.82-.77-1.64-1.17-2.48-.81-1.27-1.72-2.2-2.73-2.77-.99-.09-2.22.34-3.68,1.3ZM557,350c-.57.82-1.13,1.81-1.7,2.97-.32.65-.64,1.29-.97,1.96-.33.7-.67,1.41-1.02,2.13-.35.72-.69,1.43-1.05,2.17-.73,1.5-1.45,3-2.17,4.5-1.06,2.2-2.13,4.4-3.21,6.6-.65,1.35-1.3,2.7-1.94,4.05-.31.63-.62,1.27-.94,1.92-.28.59-.56,1.18-.85,1.79-.25.51-.49,1.03-.75,1.56-.27.9-.07,2.02.6,3.35,4.98-4.84,7.41-10.75,10.08-17.02.74-1.74,1.49-3.48,2.25-5.21.48-1.11.96-2.21,1.44-3.32.22-.51.45-1.03.68-1.57,1.03-2.43,1.55-4.39,1.55-5.88h-2ZM608.97,351.85c-10.67,2.26-21.25,2.28-32.09,2.21h-4.35c-3.51-.01-7.02-.03-10.53-.05-.16.43-.31.86-.47,1.31-2.83,7.82-5.65,15.46-9.65,22.77-.59,1.28-.88,2.92-.88,4.92,20.48,1.01,40.81-4.02,60.06-10.62.58-.2,1.16-.39,1.75-.59,2.09-.76,3.84-1.46,5.46-3,1.16-2.85,1.71-5.78,2.29-8.79.25-1.25.5-2.5.76-3.75.1-.55.21-1.1.32-1.67.36-1.57.82-3.06,1.36-4.58-4.9-.21-9.29.8-14.03,1.85h0ZM397,361v3c3.54,1.23,7.08,2.45,10.61,3.68,1.2.42,2.4.83,3.6,1.25,6.92,2.4,13.84,4.78,20.79,7.07-3.28-3.79-6.74-5.56-11.31-7.5-.7-.3-1.39-.6-2.11-.91-7.01-2.93-14.19-4.88-21.58-6.59h0ZM977,375c-.97,1-2.01,2.19-3.12,3.56-3.01,3.53-6.15,6.57-9.68,9.56-2.61,2.23-5.16,4.52-7.7,6.82-.15.13-.6.54-1.35,1.22-1.05.94-2.1,1.89-3.15,2.84.83.45,1.83.79,3,1,9.61-5.45,18.87-15.34,24-25h-2ZM434,378c.35,2.83.78,3.82,3,5.7.8.51,1.61,1.02,2.44,1.55.8.52,1.6,1.04,2.43,1.58,1.42.78,2.8,1.17,4.13,1.17v-6c-3.98-1.82-7.67-3.34-12-4ZM392,407.44c-.5.13-.99.25-1.5.39-8.81,2.3-17.48,4.99-26.12,7.86-.59.19-1.17.38-1.77.58-1.68.55-3.35,1.11-5.02,1.68-.17.05-.66.22-1.49.49-3.35,1.15-6.13,2.67-9.1,4.56.18,7.19,5.16,11.16,10,16,6.17-.38,11.9-3.09,17.44-5.62,15.97-6.98,32.89-12.1,50.04-15.19.72-.13,1.44-.26,2.18-.4.63-.11,1.25-.21,1.89-.32.48-.16.96-.31,1.45-.47.33-.66.66-1.32,1-2-.65-.23-1.29-.46-1.96-.7-2.4-.87-4.81-1.74-7.22-2.61-1.04-.37-2.08-.75-3.12-1.12-1.5-.54-3-1.08-4.5-1.62-.9-.33-1.8-.65-2.73-.99-1.65-.64-3.18-1.33-4.61-2.08-4.62-2.18-10.17.33-14.86,1.56h0ZM338.75,434c-.21.08-.86.31-1.95.69-.7.25-1.41.5-2.13.76-.74.27-1.49.53-2.25.81-9.36,3.38-18.56,7.15-27.77,10.92-2.37.96-4.74,1.93-7.11,2.89-5.69,2.31-9.88,4.03-12.58,5.14-1.65.66-3.3,1.28-4.97,1.89-1.33.6-2.28,1.62-2.87,3.05-.15,3.62.31,6.87,1,10.41.14.7.27,1.4.41,2.12,1.33,6.49,3.61,12.36,6.47,18.32,2,0,3.48-.4,4.44-1.21.51-.57,1.03-1.14,1.56-1.73,3.33-3.48,6.87-6.51,10.62-9.52,2.38-1.91,4.73-3.83,7.02-5.84,12.99-11.38,28.75-22.28,44.36-29.7-.41-.47-.82-.94-1.24-1.43-.54-.62-1.08-1.24-1.64-1.88-.53-.62-1.06-1.23-1.61-1.87-1.01-1.21-1.85-2.4-2.52-3.55-.11-.14-.44-.56-.99-1.27-2.61,0-3.88.17-6.25,1h0ZM756,497c-.68,1.05-1.34,2.11-1.95,3.2-7.3,13.03-19.51,22.59-31.26,31.44-3.15,2.39-6.25,4.85-9.35,7.3-1.13.88-2.26,1.77-3.38,2.65-.51.42-1.03.83-1.56,1.26-1,.77-2.02,1.45-3.05,2.04-1.53.93-2.46,1.6-3.45,3.11-.68,6.28,1.95,12.13,4.56,17.69.36.77.71,1.55,1.08,2.35,7.45,15.96,14.14,26.43,20.07,31.4,3.84.94,6.69-.98,10.1-2.69.76-.37,1.51-.74,2.29-1.12,13.8-6.93,26.01-16.4,37.95-26.1,1.3-1.02,2.58-1.95,3.85-2.8,1.65-1.15,2.91-2.1,4.1-3.73.35-2.69-.34-4.93-1.12-7.5-.21-.74-.41-1.48-.62-2.24-.7-2.44-1.47-4.85-2.26-7.26-.27-.82-.53-1.64-.81-2.49-5.36-16.1-13-32.82-23.19-46.51h-2,0ZM558.96,554.27c-.49.23-.98.46-1.48.71-1.56.75-3.11,1.51-4.67,2.27-1.02.5-2.05.99-3.08,1.49-5.6,2.71-11.18,5.46-16.73,8.26.25.86.5,1.71.76,2.59,8.18,27.83,12.48,45.46,12.89,52.89.48,7.85,2.34,15.07,7.87,20.89,7.3,4.8,19.92,5.91,28.48,4.63,1.47-.47,2.8-1.14,4-2,1.88-5.38.05-9.92-2-15-1.37-2.57-2.84-5.03-4.4-7.48-.53-.83-1.06-1.66-1.6-2.52-.11-.17-.43-.67-.98-1.51-2.61-4.27-3.86-8.03-4.6-12.95-.04-.25-.16-.98-.36-2.19-1.53-9.75-2.54-19.57-3.58-29.38-.28-2.6-.57-5.2-.85-7.8-.55-5.06-1.09-10.11-1.63-15.17-3.25,0-5.21.87-8.04,2.27h0ZM692.12,561c-2.98.92-5.58,1.03-8.7.88-4.35-.19-7.33.07-8.94.8-1.26,1.37-1.8,2.58-2.48,4.32-.34.84-.69,1.68-1.04,2.55-6.27,16.47-8.76,38.66-1.6,55.07,3.41,7.33,7.54,14.11,14.64,18.38,1.83.51,2.71.49,4.5-.11,12.03-7.19,17.48-23.24,21.5-35.89v-2c1.98.66,3.96,1.32,6,2-2.35,14.97-9.4,28.48-19,40h106v-31c-3.01-.75-4.7-1.1-7.62-1-2.34.08-3.24.07-5.38-1-1.29-4.35-1.22-8.86-1.32-13.36-.02-.8-.04-1.59-.06-2.4-.06-2.52-.12-5.04-.18-7.55-.05-1.71-.09-3.43-.13-5.14-.11-4.18-.21-8.37-.31-12.55-3.73,0-4.7,1.35-7.19,3.81-10.6,9.97-23.26,17.33-36.01,24.2-1.85,1.02-3.65,2.09-5.46,3.17-4.38,2.5-8.29,3.46-13.34,2.82-12.04-5.08-17.74-20.91-22.38-32.06-.63-1.58-1.26-3.15-1.89-4.73-1.42-3.51-2.84-6.92-4.73-10.21-2,0-3.02.34-4.88,1ZM521.6,570.64c-.89.35-1.77.7-2.69,1.05-.15.06-.62.25-1.41.56-7.72,3.02-15.37,6.01-23.5,7.75-.57.13-1.13.26-1.71.39-11.6,2.15-23.55.79-34.41-3.64-9.35-2.44-18.7,1.74-26.73,6.3-6.76,4.01-13.3,8.36-19.8,12.76-.61.42-1.22.83-1.85,1.25-.61.41-1.22.83-1.84,1.25-4.56,3.05-9.24,5.79-14.04,8.44-14.55,8.06-23.36,15.08-26.43,21.06-1,4.02,1.74,8.03,3.55,11.51.84,1.79,1.59,4.35,2.26,7.68h176l-2-4c-2.35-4.84-3.63-9.38-4.44-14.69-.25-1.51-.5-3.02-.76-4.54-.13-.78-.26-1.56-.4-2.37-3.01-17.88-7.53-35.25-13.4-52.4-2.48,0-4.1.73-6.4,1.64h0ZM810,617c.33,9.9.66,19.8,1,30,4.25.71,8,1.15,12.23,1.13h1.79c1.94.01,3.87.01,5.8,0,1.36,0,2.71,0,4.06.01,2.82,0,5.65,0,8.47-.01,3.62-.01,7.24,0,10.85,0,2.79.01,5.58.01,8.37,0,1.33,0,2.66,0,4,.01,1.86,0,3.72-.01,5.59-.01.55,0,1.1,0,1.66.01,3.33-.02,5.73-.4,7.18-1.14,1.1-2.38,1.04-3.8.56-6.38-2.22-4.77-7.51-7.8-12.2-9.68-.88-.31-1.77-.62-2.67-.94-2.92-1.05-4.87-2.23-5.85-3.54-.48-1.1-.86-2.16-1.14-3.19-.47-.85-1.26-1.45-2.39-1.82-2.65-.52-5.28-.75-7.97-.91-1.13-.08-2.26-.16-3.38-.24-.19-.01-.79-.05-1.78-.12-11.44-.76-22.79-1.82-34.18-3.18h0ZM362.56,621.06c-8.27,3.91-16.96,6.85-25.56,9.94-.22,3.77.49,5.07,2.91,7.81.4.43.8.87,1.21,1.31.38.45.76.89,1.15,1.34,3.3,3.65,6.5,5.23,11.39,5.7,1.7.07,3.39.06,5.09.03h1.75c2.48-.03,4.25-.06,6.5-1.19.55-4.16-.57-6.34-2.75-9.81-1.59-3-2.19-5.49-1.8-7.48,1.04-2.06,2.17-3.86,3.55-5.71.31-.46.63-.91.95-1.38.65-.9,1.34-1.77,2.05-2.62-2.61,0-4.08.92-6.44,2.06h0ZM323.08,636.17c-.77.25-1.55.5-2.34.76-.27.09-1.1.37-2.49.82-6.88,2.23-13.76,4.28-20.79,5.96-1.5.37-2.99.82-4.46,1.29l-1,2h46c-1.98-2.64-3.96-5.28-6-8l-2-4c-2.77,0-4.34.32-6.92,1.17Z"/>
    <path id="couple-linework-20" class="st0" d="M887,210c-.16,2.27-.59,3.61-2.26,5.19-2.67,1.93-5.04,2.78-7.12,2.56-.53-.25-1.07-.5-1.62-.75,2.94-5.33,4.54-7.35,11-7Z"/>
    <path id="couple-linework-21" class="st0" d="M772.75,218.37c.41.21.83.41,1.25.62.12,2.54-.09,4.63-1,7-3.25,3.21-7.17,5.26-11.75,5.63-2.09-.14-2.98-.39-4.57-1.76-.75-.91-1.64-2.2-2.68-3.87,2.38-2.8,4.41-3.63,7.94-4.56,2.59-.69,4.83-1.31,7.19-2.59,1.25-.57,2.45-.72,3.62-.47h0Z"/>
    <path id="couple-linework-22" class="st0" d="M453,225c3.63,1.43,6.19,3.53,8,7-.17,1.54-.5,2.87-1,4-.66-.11-2.66-.44-6-1-.36-1.29-.71-2.58-1.06-3.88-.07-.23-.27-.96-.6-2.17-.23-1.3,0-2.62.66-3.95Z"/>
    <path id="couple-linework-23" class="st0" d="M869,232l4,1c.11,1.79.19,3.58.25,5.38.03.5.07,1.01.1,1.53.03.99-.09,2.36-.35,4.09-1.35.9-2.68,1.57-4,2-1.55-1.84-2-2.75-2.01-5.19.11-.78.21-1.57.32-2.37.1-.79.2-1.57.3-2.38.26-1.37.72-2.73,1.39-4.06Z"/>
    <path id="couple-linework-24" class="st0" d="M564,239c3.69.5,5.6,1.1,8,4-.46,1.63-1.13,3.29-2,5-1.75.54-3.41.87-5,1-.71-.71-1.37-1.71-2-3,.12-2.38.53-4.67,1-7Z"/>
    <path id="couple-linework-25" class="st0" d="M453,240c2.03,1.16,3.33,2.33,5,4-.49,1.33-1.16,2.67-2,4-1.28.17-2.68.17-4.19,0-4.12-.15-6.84.25-10.3,2.55-4.39,4.22-5.74,9.79-5.95,15.7.19,4.18.73,6.56,3.44,9.75,3.34,3.02,6.46,3.83,10.75,4.69.6.13,1.2.26,1.82.39,1.48.32,2.95.62,4.43.92-.25,1.63-.59,3.29-1,5-4.46,2.23-11.45,1.8-16.17.32-4.96-2.65-9.01-6.83-11.14-12.07-2.48-9.26-.06-17.58,4.11-25.84,4.2-6.24,13.79-11.41,21.2-9.41h0Z"/>
    <path id="couple-linework-26" class="st0" d="M537,242c1.84,1.32,2.84,2.1,4,4,.57,3.69.88,7.47-1.02,10.78-.33.4-.65.8-.98,1.22-2.94-.3-3.86-.83-5.81-3.12-1.5-2.83-1.38-5.21-.78-8.3.89-2.39,2.4-3.38,4.59-4.58Z"/>
    <path id="couple-linework-27" class="st0" d="M875.25,252.26c3.39,1.44,5.14,4.54,6.75,7.74,2.81,8.34,1.62,18.09-1.74,26.01-1.77,2.78-3.76,4.5-6.91,5.53-7.51.37-13.99-4.01-20.35-7.54.07.17.28.7.64,1.58.96,2.36,1.91,4.74,2.86,7.11.33.82.66,1.63,1.01,2.47,2.09,5.26,2.92,9.21,2.49,11.84-2.83,2.2-5.51,2.37-9,2-2.01-2-2.37-2.66-3.07-5.26-.18-.62-.35-1.25-.53-1.89-.18-.65-.35-1.3-.53-1.97-.18-.66-.36-1.32-.55-2-.45-1.62-.89-3.25-1.32-4.88-.04.17-.16.67-.35,1.5-.16.64-.32,1.28-.49,1.94-.16.64-.31,1.28-.47,1.94-.23.53-.46,1.07-.69,1.62-1.75.63-3.42.96-5,1-1.75-4.15-.1-7.31,1.43-11.25.25-.65.49-1.3.74-1.97.6-1.59,1.21-3.19,1.83-4.78-.57.34-1.14.68-1.73,1.03-7.11,4.1-13.87,7.29-22.27,5.97-3.43-1.15-5.37-2.77-7.04-5.99-2.83-7.63-2.79-14.34.07-21.95,1.49-3.18,2.8-5.41,5.97-7.06,7.15-.47,13.58,2.62,19.93,5.5.96.42,1.91.84,2.86,1.26,4.19,1.86,7.26,3.27,9.21,4.24,1.15-.63,2.4-1.45,3.77-2.45.25-.18,1-.72,2.25-1.63.78-.57,1.55-1.14,2.35-1.73,1.53-1.11,3.06-2.22,4.59-3.33.68-.5,1.35-1,2.05-1.51,3.9-2.65,6.57-3.91,11.24-3.09h0ZM817.76,265.13c-1.07,2.61-1.05,5.09-1.01,7.87,0,.54-.02,1.07-.03,1.62,0,2.27.18,4.14,1.05,6.25.82.75,1.81,1.23,2.97,1.42,7.15-.75,13.17-3.57,19.26-7.29.33-.66.66-1.32,1-2-.73.29-1.45.58-2.19.88-.46.18-.92.36-1.39.54-1.3.53-2.58,1.12-3.86,1.71-3.08,1.05-5.33,1.02-8.56.87,1-2.67,1.54-3.78,4.16-5.04.81-.24,1.62-.47,2.46-.71.82-.24,1.64-.48,2.48-.73.21-.06.84-.23,1.9-.52-1.27-2.54-2.57-2.73-5.16-3.6-.55-.17-1.09-.34-1.66-.52-.53-.18-1.07-.37-1.62-.55-4.91-1.61-8.18-1.68-9.8-.2ZM863.12,266c-.5.19-.99.38-1.51.58-1.21.47-2.41.94-3.61,1.42v2c2.64.33,5.28.66,8,1v5c-3.96-.33-7.92-.66-12-1,2.79,2.79,4.81,4.01,8.37,5.31.16.07.63.26,1.42.59,2.65.99,4.16,1.11,6.93.46,2.68-1.6,3.37-2.39,4.28-5.36.21-2.09.19-4.15.12-6.25-.01-.55-.02-1.11-.03-1.68-.02-1.35-.06-2.71-.09-4.07-4.48-.21-7.74.34-11.88,2h0ZM849,287c.46,5.89,1.52,11.59,4,17l2,1c-1.1-6.28-2.54-12.11-5-18h-1Z"/>
    <path id="couple-linework-28" class="st0" d="M449.56,259.94c.27,0,1.08.02,2.44.06.33,1.32.66,2.64,1,4-.16.02-.65.08-1.46.19-.21.03-.85.11-1.92.25-.62.08-1.25.16-1.9.25-1.15.21-2.39.64-3.72,1.31,1.53-3.99,3.39-6.01,5.56-6.06Z"/>
    <path id="couple-linework-29" class="st0" d="M446,267c1.63.17,3.29.5,5,1,.54,1.37.87,2.71,1,4-1.25.08-2.59.08-4,0l-2-2v-3Z"/>
    <path id="couple-linework-30" class="st0" d="M390,282c2.37,1.38,4.68,2.77,6.91,4.36,13.29,9.37,28.24,12.47,44.09,14.64-.25,1.29-.59,2.63-1,4-7.25,3.63-17.69.33-25-2-5.28-1.88-10.05-4.51-14.81-7.44-.46-.27-.92-.55-1.39-.83-4.13-2.65-7.25-5.68-8.55-10.54-.08-.72-.17-1.45-.25-2.19Z"/>
    <path id="couple-linework-31" class="st0" d="M525,282h17c-.67,3.33-1.67,5.67-3,7-4.75,1.29-7.49.95-12-1-.66-.66-1.32-1.32-2-2v-4Z"/>
    <path id="couple-linework-32" class="st0" d="M456,297c1.33,1.33,2.08,2.83,2.25,4.5-.17,1.67-.92,3.17-2.25,4.5-1.37-.08-2.71-.41-4-1-.5-1.37-.83-2.71-1-4-.33.99-.66,1.98-1,3-1.32-.33-2.64-.66-4-1,.17-1.59.5-3.25,1-5,3.08-2.42,5.37-2.15,9-1Z"/>
    <path id="couple-linework-33" class="st0" d="M464,311c-1.41,3.33-3.01,5.13-5.88,7.31-.67.53-1.35,1.07-2.05,1.62-1.38.71-2.8,1.02-4.27.93-1.2-.57-2.05-1.38-2.55-2.42-.03-.16-.11-.64-.25-1.44,1.74-1.01,3.49-2.01,5.25-3,.49-.29.98-.57,1.49-.87,2.87-1.6,4.87-2.52,8.26-2.13h0Z"/>
    <path id="couple-linework-34" class="st0" d="M292,316l1,2c-6.19,15.64-18.87,29.67-30,42-.55.62-1.1,1.23-1.66,1.87-20.19,22.58-55.3,57.27-87.11,60.4-5.56.2-9.58-.13-14.23-3.27v-1c.79-.01,1.58-.03,2.39-.04,34.79-1.26,66.62-34.01,89.9-57.08.92-.9,1.83-1.8,2.74-2.7,6.1-6.01,11.66-12.27,16.99-18.96,2.3-2.86,4.71-5.63,7.1-8.41.51-.58,1.01-1.17,1.54-1.78,3.75-4.36,7.53-8.71,11.34-13.03h0Z"/>
    <path id="couple-linework-35" class="st0" d="M640,361h3c-.54,3.9-1.59,5.94-4,9-1.07,1.97-2.05,3.97-3,6-1.32-.33-2.64-.66-4-1-.4-2.8.03-4.34,1.64-6.58.72-.9,1.44-1.79,2.17-2.67.36-.46.72-.92,1.08-1.39.71-.87,1.75-1.99,3.11-3.36Z"/>
    <path id="couple-linework-36" class="st0" d="M773,400c7.15.58,14.09,1.67,21.12,3.06.96.19,1.92.38,2.9.57,2.33.45,4.66.91,6.98,1.37.11.44.44,1.77,1,4-1.75,1.76-3.13,2.94-5.67,3.11-2.01-.16-3.97-.42-5.95-.73-.71-.11-1.42-.21-2.16-.32-9.5-1.46-15.34-3.22-17.52-5.29-.59-.89-1.16-2.14-1.7-3.77l1-2h0Z"/>
    <path id="couple-linework-37" class="st0" d="M975,405h3c2.31,4.47,2.67,9.02,2,14-.66.66-1.32,1.32-2,2-1.75-.25-3.41-.59-5-1,.14-2.13.29-4.25.44-6.38.01-.2.05-.81.12-1.82.04-.58.08-1.16.12-1.76.04-.54.08-1.07.11-1.62.14-.95.54-2.09,1.21-3.42h0Z"/>
    <path id="couple-linework-38" class="st0" d="M970,409c2.01,2.09,3,3.95,2.98,5.6-.26,1.48-.62,2.94-.98,4.4-.96-.08-1.96-.41-3-1-.96-3.41-.98-6.03-.06-7.88.35-.37.7-.74,1.06-1.12Z"/>
    <path id="couple-linework-39" class="st0" d="M447,431c.67,1.33.88,2.5.65,3.51-.07.19-.28.78-.65,1.75-.07.21-.3.84-.69,1.89-.25.65-.49,1.3-.75,1.97-.24.66-.48,1.32-.73,2-.61,1.63-1.21,3.26-1.83,4.88h-2c.29-6.56,1.27-11.27,6-16h0Z"/>
    <path id="couple-linework-40" class="st0" d="M462,432c1.9.42,2.78.69,3.91,2.31,2.05,4.85,2.75,9.46,3.09,14.69-.91-.09-1.91-.43-3-1-.89-1.97-1.57-3.76-2.19-5.81-.17-.54-.35-1.07-.53-1.62-.94-2.94-1.5-5.45-1.28-8.57Z"/>
    <path id="couple-linework-41" class="st0" d="M695,580l4,1c-.11,2.06-.24,4.13-.38,6.19,0,.19-.03.78-.09,1.75-.25,3.75-.95,6.65-2.53,10.06-1.63-.5-3.29-1.17-5-2-1.41-3.35-.76-5.68.31-9.06.27-.86.53-1.72.8-2.6.78-2.05,1.58-3.6,2.89-5.34h0Z"/>
    <path id="couple-linework-42" class="st0" d="M558,615c1.12-.03,2.25-.05,3.38-.06.62-.01,1.25-.03,1.89-.04,1.15.07,2.4.43,3.73,1.1.08,1.37.08,2.71,0,4-.87.41-1.87.74-3,1-1.07-.47-2.14-1.08-3.19-1.81-.53-.36-1.06-.72-1.6-1.08-.4-.37-.8-.73-1.21-1.11v-2Z"/>
    <path id="couple-linework-43" class="st0" d="M831.19,625.81c3.63.04,6.44.87,9.81,2.19.13,1.58.13,3.25,0,5-1.75,1.67-2.72,1.99-5.15,2.04-.78-.09-1.55-.19-2.35-.29-.77-.09-1.54-.18-2.34-.27-2.17-.48-3.43-1.13-5.16-2.48.73-4.09,2.46-6.16,5.19-6.19Z"/>
  </g>
  <g id="cat-linework">
    <path id="cat-linework-1" class="st0" d="M1083,441c3.4,2.43,4.59,4.84,5.69,8.81.21,1.46.24,3.15.09,5.07-.28,4.17.13,7.21,1.22,9.12,2.88,2.14,6.22,3.22,9.57,4.4,5.3,1.9,8.49,4.12,12.31,8.22,1.6,1.66,3.12,3.21,5.12,4.38,3.82.06,6.6-1.37,10-3,7.58-2.28,16.47-3.96,23.75-.05,2.42,2.02,4.04,4.02,4.68,7.14.02,10.67-3.25,25.43-10.86,33.41-.92.75-2.11,1.58-3.57,2.5-.66-.99-1.32-1.98-2-3,.25-.34.5-.68.76-1.02,6.24-8.83,9.94-20.18,9.84-30.98-.4-1.33-1.18-2.42-2.34-3.26-9.32-3.05-21.04.23-29.83,3.92-.48.11-.95.23-1.43.34-1.57-1.28-2.91-2.55-4.31-4-9.63-9.22-22.17-13.2-34.69-17v-2c1.98-.33,3.96-.66,6-1,.03-2.1.05-4.21.06-6.31.01-.6.02-1.19.03-1.81v-3.35c-.12-1.65-.53-2.99-1.11-4.53-4.21-.52-6.16.46-9.35,2.95-.5.41-1.01.82-1.53,1.24-1.06.82-2.12,1.65-3.18,2.47-1.71,1.35-3.41,2.72-5.1,4.09-2.79,2.16-5.36,3.26-7.72,3.31-1.41-.71-2.39-1.75-2.93-3.12-.06-.64-.13-1.28-.19-1.94.59.24,1.18.47,1.79.71.73.1,1.46.19,2.21.29,1.1-.91,2.23-2.06,3.38-3.44,3.47-3.84,7.32-6.48,11.81-9.06.59-.35,1.19-.7,1.8-1.06,3.43-1.91,5.98-3.02,10.01-2.44h.02Z"/>
    <path id="cat-linework-3" class="st0" d="M1046,459h4v3h-4v-3Z"/>
    <path id="cat-linework-4" class="st0" d="M991,469c4.37,2.19,7.18,4.28,8.44,6.25.18.58.37,1.15.56,1.75-5.09-1.27-7.04-2.67-10-7l1-1Z"/>
    <path id="cat-linework-5" class="st0" d="M1047,474c1.37.08,2.71.41,4,1,.59,1.29.92,2.63,1,4-1.33,1.33-2.87,2.04-4.62,2.12-.79-.04-1.57-.08-2.38-.12-.08-1.59-.08-3.25,0-5l2-2Z"/>
    <path id="cat-linework-6" class="st0" d="M979,477c5.27.27,10.26.89,14,5v3c-4.62-1.98-9.24-3.96-14-6v-2Z"/>
    <path id="cat-linework-7" class="st0" d="M1052,486c3.41-.37,6.04.02,7.88,1.19,1.47,2.37,1.34,4.07,1.12,6.81-1.98.66-3.96,1.32-6,2-.7-1.29-1.38-2.58-2.06-3.88-.13-.23-.51-.96-1.16-2.17-.26-.65-.52-1.29-.78-1.95l1-2h0Z"/>
    <path id="cat-linework-8" class="st0" d="M1079.51,493.8c1.5.07,2.99.13,4.49.2.23,2.84.36,4.46-1.25,6.87-1.17.75-2.46,1.13-3.87,1.13-1.25-.67-2.17-1.81-2.75-3.44-.04-.85-.09-1.69-.13-2.56,1.33-1.33,2.5-2.07,3.51-2.2Z"/>
    <path id="cat-linework-9" class="st0" d="M1051,496h3c-.11.69-.21,1.37-.32,2.08-.12.9-.24,1.8-.37,2.73-.04.3-.17,1.2-.38,2.71.05,1.65.49,3.06,1.32,4.23,1.84,1.31,3.26,1.9,5.44,2.44.62.16,1.24.31,1.88.48.47.11.95.22,1.43.33-.37,1.33-1.04,2.67-2,4-2.36.37-4.63.23-7,0-.25.89-.49,1.77-.75,2.69-1.11,3.25-2.42,6.22-5.25,8.31-2.17.42-3.77.25-6,0-3.31-5.23-3.25-10.22-2.98-16.2.03-.59.05-1.18.07-1.79.03-.53.06-1.06.09-1.61-.12-.93-.85-2.07-2.18-3.4v-3c.19.05.75.19,1.69.44.25.06,1.02.25,2.31.56.8.31,1.61.62,2.44.94.28,0,1.13.02,2.56.06,1.49-1.44,2.63-2.94,3.79-4.65.4-.45.8-.89,1.21-1.35h0ZM1044,508c-.15.93-.22,1.99-.2,3.16,0,.63.02,1.26.02,1.9.02.66.04,1.32.06,2,0,.67,0,1.33.02,2.01.03,1.65.06,3.29.1,4.93.99.33,1.98.66,3,1,2.85-3.21,4.89-5.53,5-10-.93-2.54-2.14-4.52-4.56-5.88-.96-.08-2.11.21-3.44.88h0Z"/>
    <path id="cat-linework-10" class="st0" d="M1071,505c9.42-1.5,19.67,4.19,27.12,9.52,2.55,2.01,4.76,4.01,6.88,6.48v2c-3.73-1.42-7.29-3.08-10.88-4.82-6.89-3.33-13.64-6.25-21-8.39-1.41-.53-2.45-1.46-3.12-2.79l1-2h0Z"/>
    <path id="cat-linework-11" class="st0" d="M1071,513c3.97,1.31,6.48,3.01,9.25,6.19.35.39.7.79,1.06,1.2,2.95,3.52,3.69,6.09,3.69,10.61-3.5-3.39-6.73-6.92-9.81-10.69-.41-.48-.82-.97-1.23-1.47-.39-.47-.77-.93-1.17-1.41-.34-.42-.69-.84-1.04-1.27-.5-.77-.75-1.83-.75-3.16h0Z"/>
    <path id="cat-linework-12" class="st0" d="M961,514c1.32.93,2.63,1.87,3.94,2.81.73.52,1.46,1.05,2.21,1.58,1.81,1.58,2.41,2.3,2.85,4.61-4.24-1.3-6.76-3.09-9-7v-2Z"/>
    <path id="cat-linework-13" class="st0" d="M1140,523c.44.11,1.77.44,4,1v4c-1.32.33-2.64.66-4,1-.79-1.84-1.07-2.72-.56-4.69.18-.43.37-.86.56-1.31Z"/>
    <path id="cat-linework-14" class="st0" d="M960,527c3.12.99,5.22,2.36,6.31,4.12.23.62.46,1.24.69,1.88-3.12-.99-5.22-2.36-6.31-4.12-.23-.62-.46-1.24-.69-1.88Z"/>
    <path id="cat-linework-15" class="st0" d="M1041.19,462.44c.72.1,1.43.2,2.17.31.18.03.73.11,1.64.25v2c-.29.11-1.19.46-2.7,1.03-1.18.45-2.37.9-3.55,1.35-.58.22-1.17.44-1.77.67-3.08,1.18-6.06,2.41-8.98,3.95.39.2.77.41,1.16.61,1.74.92,3.48,1.84,5.22,2.77.6.31,1.2.63,1.83.96.58.31,1.16.62,1.75.94.54.28,1.07.56,1.62.85.95.58,2.09,1.54,3.42,2.87v3h-2v2c-3.31-.59-5.04-1.65-7.5-3.94-3.05-2.81-5.63-5.11-9.93-5-3.39,1.24-5.24,3.26-7.57,5.94.8.1,1.6.2,2.42.3,6.14.84,10.69,1.62,15.58,5.7-.11.33-.44,1.33-1,3-.78-.29-1.57-.57-2.38-.87-7.51-2.69-13.05-3.74-16.62-3.13-3.25,2.92-4.67,7.39-5.21,11.67-.63,11.72,2.12,19.17,8.61,28.85.11.18.47.72,1.06,1.63.11.16.43.64.97,1.45.38.93.44,1.96.17,3.08-.2.44-.39.87-.6,1.32-2.2-.14-3.6-.61-5.18-2.16-1.36-1.68-2.63-3.39-3.88-5.15-.47-.65-.94-1.3-1.43-1.97-5.8-8.25-13.13-18.71-16.01-28.4-.33-.88-1.21-1.71-2.62-2.5-3.4-.96-6.38-1.37-9.88-.82-2.35,1.5-2.87,2.69-3.93,5.25-.1,4.04,1.51,6.6,3.93,9.75.45.39.9.79,1.36,1.19,4.56,4.04,6.27,8.18,8.11,13.93.8,2.47,1.66,4.92,2.53,7.37.17.48.34.96.51,1.46,3.35,9.37,8.24,17.31,14.7,24.83,3.95,4.88,6.13,10.18,8.52,15.95,5.88,14.13,11.01,23.51,15.39,28.15.59.75.88,1.79.88,3.12h2v-6c2.23,2.23,2.44,3.11,3.07,6.11.18.82.35,1.64.53,2.48.06.29.24,1.15.53,2.6.18.84.36,1.68.55,2.54,1.73,8.31,1.73,13.99,0,17.02-1.13,1.5-2.25,2.77-3.38,3.81-.87.96-1.37,2.17-1.5,3.63.07.6.13,1.2.19,1.81,5.1,1.24,10.32,2.3,15.07-.44,7.36-5.8,10.92-15.45,14.56-23.81.7-1.6,1.4-3.2,2.11-4.8.43-.98.86-1.96,1.29-2.95,1.55-3.49,3.52-6.11,5.97-9l2,1c-.17.41-.35.82-.53,1.24-4.29,9.98-6.44,17.57-6.47,22.76,2.21.71,4.41,1.39,6.63,2.06.21.07.83.27,1.87.61,6.27,1.88,10.65.7,16.88-1.23.29-.09,1.17-.36,2.65-.82.65-.2,1.3-.41,1.97-.62.33.99.66,1.98,1,3-1.62.67-3.25,1.34-4.87,2-.91.37-1.81.75-2.74,1.13-1.59.58-3.06.87-4.39.87-.66,2.31-1.32,4.62-2,7,6.99,2.01,13.68,2.34,20.89,2.32,1.81-.01,3.62.02,5.43.04,7.32.05,12.55-1.07,15.68-3.36.81-.95,1.41-1.91,1.81-2.87.22-.47.43-.95.65-1.43,3.49-10.91,2.3-23.15-2.75-33.29-6.06-10.77-15.61-19.48-27.7-22.99-2.61-.59-5.22-1.05-7.86-1.47-4.66-.75-8.35-2.03-12.15-4.95,3.24-1.05,5.29-.89,8.57-.06,11.45,2.45,24.25,1.67,34.37-4.69,10.07-7.5,12.95-15.95,14.73-27.9.11-.78.22-1.55.33-2.35h3c.89,11.87.06,20.87-7.83,30.15-5.68,5.47-12.82,9.06-20.79,9.1-1.13-.06-2.26-.13-3.38-.25v2c.88.26,1.76.52,2.66.78,9.53,3.2,16.58,10.62,21.34,19.22,2.08,4.21,4,8.26,4,13h2c1.68-2.84,2.84-5.94,4.07-9,.34-.84.68-1.69,1.03-2.56,1.83-4.95,2.05-9.29,2.08-14.54.02-1.62.05-3.24.07-4.86.04-2.54.06-5.08.08-7.62.1-15.85,2.79-26.57,8.07-32.14,5.47-4.37,11.5-7.16,18.58-6.69,6.28,1.28,10.39,6.43,14.02,11.41,2.87,4.71,2.75,9.65,2,15-1.69,3.69-4.33,5.96-8,7.63-1.85.47-2.67.52-4.42-.27-2.68-1.99-4.48-4.16-5.58-7.36-.08-1.5-.08-2.83,0-4-1.29.25-2.62.59-4,1-1.14,2.29-1.13,3.59-1.12,6.13-.01.72-.01,1.45-.01,2.19.11,2.2.33,4.28.62,6.46,2.31,17.76.22,36.76-10.51,51.64-4.94,6.41-10.42,11.84-18.79,12.96-1.46.41-2.43,1.04-2.91,1.87-.22.52-.43,1.03-.65,1.57-1.45,3.38-3.37,4.64-6.52,6.42-11.59,4.19-26.34,2.18-38.22.08-2.14-.36-4.28-.67-6.43-.98-1.55-.23-3.1-.47-4.65-.71-.73-.1-1.46-.21-2.21-.31-3.28-.54-5.1-.85-7.57-3.15-1.12-2.37-1.34-3.82-1.22-6.42.03-.7.06-1.41.09-2.14.03-.53.07-1.06.1-1.61h-3c-.81,1.2-1.6,2.6-2.37,4.19-2.07,3.96-4.14,7.01-7.63,9.81-.43.36-.87.72-1.32,1.08-4.65,2.55-11.61,2.46-16.68,1.24-3-1.09-4.57-2.38-6-5.32-.37-1.63-.37-3.29,0-5,.93-.74,1.95-1.49,3.07-2.25,1.9-1.44,2.97-3,3.21-4.68-.24-2.42-.71-4.7-1.28-7.07-.15-.89-.31-1.79-.47-2.71-1.23-5.83-3.06-9.35-7.2-13.61-8.15-8.55-13.06-19.12-16.12-30.42-1.62-5.61-4.18-9.09-8.21-13.26-8.8-9.73-13.56-20.41-17.57-32.83-3.01-9.29-6.62-15.31-10.83-18.05-1.86-1.3-2.19-1.91-2.6-4.12-.53-4.1-.55-7.7,1.63-11.31,2.31-2.95,4.69-4.83,8.37-5.69,5.68-.33,9.33.72,13.58,4.46,2.43,2.63,3.83,5.62,5.3,8.86.3.64.61,1.29.93,1.95.74,1.57,1.47,3.15,2.19,4.73.1-.96.2-1.93.3-2.93,1.48-13.45,4.49-22.03,14.7-31.07-.36-.32-.72-.65-1.09-.99-.47-.43-.93-.87-1.41-1.32-.46-.43-.93-.86-1.4-1.3-.73-.93-1.1-2.39-1.1-4.39,2.35.52,4.14,1.08,6.26,2.25,2.96.81,3.23.81,5.75-.55,1.05-.65,2.09-1.32,3.12-2.01,1.04-.66,2.08-1.33,3.13-1.99.46-.3.91-.6,1.38-.91,3.02-1.74,5.12-1.86,8.55-1.35h.01ZM1153.57,544.94c-3.14,5.72-3.85,11.29-3.66,17.73.02,1.46.04,2.93.06,4.4.05,2.27.09,4.54.15,6.81.3,13.78-.2,26.83-9.12,38.12-.23.15-.94.58-2.11,1.3-2.92,2.63-2.8,5.61-3.14,9.39-.07.7-.15,1.4-.23,2.13-.19,1.72-.36,3.45-.52,5.18,6.33-.96,10.57-4.12,14.67-8.97,7.5-10.63,11.75-22.96,11.42-35.95l-.06-5.04c-.04-2.62-.09-5.24-.14-7.86-.05-2.56-.08-5.11-.11-7.66-.02-.78-.04-1.56-.07-2.36-.04-4.67.37-7.45,3.29-11.16,2.09-.91,3.69-.84,6-1,.34.55.68,1.09,1.03,1.65.44.71.89,1.43,1.35,2.17.44.7.88,1.41,1.33,2.14,1.08,1.7,2.17,3.38,3.29,5.04,3.56-1.21,5.89-2.88,7-5,.89-3.78.52-6.92-1.17-10.42-2.68-4.22-5.03-7.86-9.83-9.58-7.87-1.66-14.84,2.61-19.43,8.94h0ZM1071,631v6c3.78,1.84,5.95,2.16,10,1,.33-1.98.66-3.96,1-6-2.4-1.2-3.95-1.1-6.62-1.06-.82,0-1.64.02-2.48.03-.63,0-1.25.02-1.9.03h0Z"/>
    <path id="cat-linework-16" class="st0" d="M1022,537h3c.41.83.75,1.83,1,3-.63,1.46-1.29,2.79-2,4-1.04-.83-2.04-1.83-3-3,.21-1.46.54-2.79,1-4Z"/>
    <path id="cat-linework-17" class="st0" d="M1028,542c1.04.29,2.04.63,3,1-.33,1.65-.66,3.3-1,5h-2c-.38-1.66-.71-3.32-1-5l1-1Z"/>
    <path id="cat-linework-18" class="st0" d="M950,647c62.78-.13,104.65-.03,125.6.29,1.65.02,3.3.04,4.94.06,2.97.03,5.94.08,8.91.14.85,0,1.69,0,2.56.02.25,0,1.01.02,2.29.06.65,0,1.3.02,1.97.03,2.28.53,3.23,1.65,4.73,3.4-.42,1.31-1.09,2.65-2,4-2.13.41-3.76.52-5.9.48-.61,0-1.22.01-1.85.01-2.05.01-4.1-.01-6.15-.04-1.47,0-2.94,0-4.41.01-3.99,0-7.99-.03-11.98-.05-4.17-.03-8.34-.03-12.51-.04-7.9-.01-15.8-.04-23.71-.08-8.99-.05-17.98-.07-26.98-.09-18.5-.04-37.01-.11-55.51-.2v-8h0Z"/>
  </g>
  <g id="bride-blush">
    <path id="bride-blush-1" class="st2" d="M541,258c1.75.63,3.41,1.29,5,2-.19,2.93-.53,4.93-1,6-3.94,3.14-7.14,3.44-12.06,3.31h-1.86c-3.52-.04-6.01-.4-9.08-2.32.59-3.17,1.25-5.5,2-7,2.8-1.48,5.98-1.07,9.06-1,3.78.09,6.43-.25,7.94-1h0Z"/>
  </g>
  <g id="groom-blush">
    <path id="groom-blush-1" class="st3" d="M767.56,199.37c.62.09,1.24.18,1.88.27,1.04.23,1.89.68,2.56,1.35.5,2.43.53,4.58,0,7-2.18,3.01-5.17,3.82-8.67,4.61-5.45.75-9.31.34-11.58-1.23-1.17-1.59-1.77-3.25-1.81-5,.71-1.59,1.6-2.77,2.68-3.56,2.58-.88,5.16-1.66,7.79-2.35,3.27-.96,5.65-1.32,7.15-1.09h0Z"/>
  </g>
  <g id="cat-pink">
    <path id="cat-pink-1" class="st1" d="M1071,455c2.96-1.37,5.21-1.99,6.75-1.88.83.59,1.52,1.46,2.06,2.62.24,2.88-.59,4.68-1.81,7.26-1.62.02-3.25.04-4.87.06-.31,0-1.22,0-2.75.03-1.53.02-2.99-.34-4.38-1.09.33-1,.66-1.99,1-3"/>
    <path id="cat-pink-2" class="st1" d="M1125,493v-2c6.91-3.31,12.25-3.97,16-2-.21,6.08-2.54,10.09-6,15-3.25-.27-5.21-.84-7.38-3.25-1.62-2.22-1.63-2.63-1.37-5.56"/>
    <path id="cat-pink-3" class="st1" d="M1047.44,507.12c2.46,1.38,3.8,3.21,4.56,5.88-.38,3.73-1.34,6.33-4,9-1.41.08-2.75.08-4,0-.06-2.32-.09-4.63-.12-6.94-.02-.66-.04-1.32-.05-2,0-.63-.02-1.26-.02-1.9,0-.59-.02-1.17-.03-1.77.07-.46.15-.92.22-1.39,1.33-.67,2.48-.96,3.44-.88h0Z"/>
  </g>
</svg>